<?xml version="1.0" encoding="utf-8"?>
<!-- Generator: Adobe Illustrator 26.1.0, SVG Export Plug-In . SVG Version: 6.00 Build 0)  -->
<svg version="1.1" id="Livello_1" xmlns="http://www.w3.org/2000/svg" xmlns:xlink="http://www.w3.org/1999/xlink" x="0px" y="0px"
	 viewBox="0 0 48 48" style="enable-background:new 0 0 48 48;" xml:space="preserve">
<style type="text/css">
	.st0{fill:#009E66;}
</style>
<path class="st0" d="M30,40c-0.4,0-0.8-0.1-1.1-0.4c-0.3-0.3-0.4-0.6-0.4-1.1s0.1-0.8,0.4-1.1c0.3-0.3,0.6-0.4,1.1-0.4h4.5
	c0.7,0,1.3-0.2,1.8-0.7s0.7-1.1,0.7-1.8v-5c0-1.2,0.4-2.3,1.1-3.3c0.8-1,1.7-1.6,2.9-2v-0.4c-1.2-0.3-2.1-1-2.9-2S37,19.7,37,18.5
	v-5c0-0.7-0.2-1.3-0.7-1.8c-0.5-0.5-1.1-0.7-1.8-0.7H30c-0.4,0-0.8-0.1-1.1-0.4c-0.3-0.3-0.4-0.6-0.4-1.1s0.1-0.8,0.4-1.1
	C29.2,8.1,29.6,8,30,8h4.5c1.5,0,2.8,0.5,3.9,1.6S40,12,40,13.5v5c0,0.7,0.2,1.3,0.7,1.8s1.1,0.7,1.8,0.7c0.4,0,0.8,0.1,1.1,0.4
	c0.3,0.3,0.4,0.6,0.4,1.1v3c0,0.4-0.1,0.8-0.4,1c-0.3,0.3-0.6,0.5-1.1,0.5c-0.7,0-1.3,0.2-1.8,0.7S40,28.8,40,29.5v5
	c0,1.5-0.5,2.8-1.6,3.9S36,40,34.5,40H30z M13.5,40c-1.5,0-2.8-0.5-3.9-1.6S8,36,8,34.5v-5c0-0.7-0.2-1.3-0.7-1.8S6.2,27,5.5,27
	c-0.4,0-0.8-0.1-1.1-0.5c-0.3-0.3-0.4-0.6-0.4-1v-3c0-0.4,0.2-0.8,0.4-1.1C4.8,21.1,5.1,21,5.5,21c0.7,0,1.3-0.2,1.8-0.7
	S8,19.2,8,18.5v-5c0-1.5,0.5-2.8,1.6-3.9S12,8,13.5,8H18c0.4,0,0.8,0.1,1.1,0.4c0.3,0.3,0.4,0.6,0.4,1.1s-0.1,0.8-0.4,1.1
	C18.8,10.9,18.4,11,18,11h-4.5c-0.7,0-1.3,0.2-1.8,0.7c-0.5,0.5-0.7,1.1-0.7,1.8v5c0,1.2-0.4,2.3-1.1,3.3s-1.7,1.6-2.9,2v0.4
	c1.2,0.4,2.1,1,2.9,2s1.1,2.1,1.1,3.3v5c0,0.7,0.2,1.3,0.7,1.8c0.5,0.5,1.1,0.7,1.8,0.7H18c0.4,0,0.8,0.1,1.1,0.4
	c0.3,0.3,0.4,0.6,0.4,1.1s-0.1,0.8-0.4,1.1C18.8,39.9,18.4,40,18,40H13.5z"/>
</svg>
