<?xml version="1.0" encoding="utf-8"?>
<!-- Generator: Adobe Illustrator 26.1.0, SVG Export Plug-In . SVG Version: 6.00 Build 0)  -->
<svg version="1.1" id="Livello_1" xmlns="http://www.w3.org/2000/svg" xmlns:xlink="http://www.w3.org/1999/xlink" x="0px" y="0px"
	 viewBox="0 0 48 48" style="enable-background:new 0 0 48 48;" xml:space="preserve">
<style type="text/css">
	.st0{fill:#009E66;}
</style>
<path class="st0" d="M28,43.1c-0.6,0.6-1.3,0.9-2.2,0.9s-1.6-0.3-2.2-0.9L4.8,24.4c-0.3-0.3-0.6-0.7-0.7-1C4.1,23,4,22.6,4,22.2V7
	c0-0.9,0.3-1.6,0.8-2.2S6.1,4,7,4h15.2c0.4,0,0.8,0.1,1.2,0.2s0.8,0.3,1.1,0.7l18.6,18.6c0.6,0.6,1,1.4,1,2.2c0,0.8-0.3,1.6-1,2.2
	L28,43.1z M25.9,41.1l15.2-15.2L22.2,7H7v15.2L25.9,41.1z M12.2,14.8c0.7,0,1.3-0.3,1.8-0.8s0.8-1.1,0.8-1.8s-0.3-1.3-0.8-1.8
	c-0.5-0.5-1.1-0.8-1.8-0.8s-1.3,0.3-1.8,0.8s-0.8,1.1-0.8,1.8c0,0.7,0.3,1.3,0.8,1.8C10.9,14.5,11.6,14.8,12.2,14.8z"/>
</svg>
