<?xml version="1.0" encoding="utf-8"?>
<!-- Generator: Adobe Illustrator 26.1.0, SVG Export Plug-In . SVG Version: 6.00 Build 0)  -->
<svg version="1.1" id="Livello_1" xmlns="http://www.w3.org/2000/svg" xmlns:xlink="http://www.w3.org/1999/xlink" x="0px" y="0px"
	 viewBox="0 0 48 48" style="enable-background:new 0 0 48 48;" xml:space="preserve">
<style type="text/css">
	.st0{fill:#009E66;}
</style>
<path class="st0" d="M16.5,24l3.5-3.5c0.3-0.3,0.5-0.7,0.5-1.1c0-0.4-0.1-0.8-0.5-1.1s-0.7-0.5-1.1-0.5c-0.4,0-0.8,0.1-1.1,0.5
	l-4.6,4.6c-0.2,0.2-0.3,0.3-0.4,0.5c-0.1,0.2-0.1,0.3-0.1,0.5c0,0.2,0,0.4,0.1,0.5c0.1,0.2,0.2,0.3,0.4,0.5l4.7,4.7
	c0.3,0.3,0.7,0.5,1.1,0.5c0.4,0,0.8-0.1,1.1-0.5c0.3-0.3,0.5-0.7,0.5-1.1c0-0.4-0.1-0.8-0.5-1.1L16.5,24z M31.5,24L28,27.5
	c-0.3,0.3-0.5,0.7-0.5,1.1c0,0.4,0.1,0.8,0.5,1.1c0.3,0.3,0.7,0.5,1.1,0.5c0.4,0,0.8-0.1,1.1-0.5l4.7-4.7c0.2-0.2,0.3-0.3,0.3-0.5
	c0.1-0.2,0.1-0.4,0.1-0.5s0-0.4-0.1-0.5c-0.1-0.2-0.2-0.3-0.3-0.5l-4.7-4.7c-0.1-0.2-0.3-0.3-0.5-0.4c-0.2-0.1-0.4-0.1-0.6-0.1
	s-0.4,0-0.6,0.1c-0.2,0.1-0.4,0.2-0.5,0.4c-0.3,0.3-0.5,0.7-0.5,1.1c0,0.4,0.1,0.8,0.5,1.1L31.5,24z M9,42c-0.8,0-1.5-0.3-2.1-0.9
	C6.3,40.5,6,39.8,6,39V9c0-0.8,0.3-1.5,0.9-2.1S8.2,6,9,6h30c0.8,0,1.5,0.3,2.1,0.9C41.7,7.5,42,8.2,42,9v30c0,0.8-0.3,1.5-0.9,2.1
	C40.5,41.7,39.8,42,39,42H9z M9,39h30V9H9V39z M9,9v30V9z"/>
</svg>
