<?xml version="1.0" encoding="utf-8"?>
<!-- Generator: Adobe Illustrator 26.1.0, SVG Export Plug-In . SVG Version: 6.00 Build 0)  -->
<svg version="1.1" id="Livello_1" xmlns="http://www.w3.org/2000/svg" xmlns:xlink="http://www.w3.org/1999/xlink" x="0px" y="0px"
	 viewBox="0 0 48 48" style="enable-background:new 0 0 48 48;" xml:space="preserve">
<style type="text/css">
	.st0{fill:#009E66;}
</style>
<path class="st0" d="M19.5,19.5h15c0.4,0,0.8-0.1,1.1-0.4c0.3-0.3,0.4-0.6,0.4-1.1s-0.1-0.8-0.4-1.1c-0.3-0.3-0.6-0.4-1.1-0.4h-15
	c-0.4,0-0.8,0.1-1.1,0.4C18.1,17.2,18,17.6,18,18s0.1,0.8,0.4,1.1C18.7,19.4,19.1,19.5,19.5,19.5z M19.5,27.5h15
	c0.4,0,0.8-0.1,1.1-0.4c0.3-0.3,0.4-0.6,0.4-1.1s-0.1-0.8-0.4-1.1c-0.3-0.3-0.6-0.4-1.1-0.4h-15c-0.4,0-0.8,0.1-1.1,0.4
	C18.1,25.2,18,25.6,18,26s0.1,0.8,0.4,1.1C18.7,27.4,19.1,27.5,19.5,27.5z M14,19.6c0.5,0,0.9-0.2,1.2-0.5c0.3-0.3,0.5-0.7,0.5-1.2
	c0-0.5-0.2-0.9-0.5-1.2c-0.3-0.3-0.7-0.5-1.2-0.5s-0.9,0.2-1.2,0.5c-0.3,0.3-0.5,0.7-0.5,1.2c0,0.5,0.2,0.9,0.5,1.2
	C13.1,19.5,13.5,19.6,14,19.6z M14,27.6c0.5,0,0.9-0.2,1.2-0.5c0.3-0.3,0.5-0.7,0.5-1.2c0-0.5-0.2-0.9-0.5-1.2
	c-0.3-0.3-0.7-0.5-1.2-0.5s-0.9,0.2-1.2,0.5c-0.3,0.3-0.5,0.7-0.5,1.2c0,0.5,0.2,0.9,0.5,1.2C13.1,27.5,13.5,27.6,14,27.6z M18,42
	c-0.4,0-0.8-0.1-1.1-0.4c-0.3-0.3-0.4-0.6-0.4-1.1V38H7c-0.8,0-1.5-0.3-2.1-0.9S4,35.8,4,35V9c0-0.8,0.3-1.5,0.9-2.1S6.2,6,7,6h34
	c0.8,0,1.5,0.3,2.1,0.9S44,8.2,44,9v26c0,0.8-0.3,1.5-0.9,2.1S41.8,38,41,38h-9.5v2.5c0,0.4-0.1,0.8-0.4,1.1
	C30.8,41.9,30.4,42,30,42H18z M7,35h34V9H7V35z M7,35V9V35z"/>
</svg>
