<?xml version="1.0" encoding="utf-8"?>
<!-- Generator: Adobe Illustrator 26.1.0, SVG Export Plug-In . SVG Version: 6.00 Build 0)  -->
<svg version="1.1" id="Livello_1" xmlns="http://www.w3.org/2000/svg" xmlns:xlink="http://www.w3.org/1999/xlink" x="0px" y="0px"
	 viewBox="0 0 48 48" style="enable-background:new 0 0 48 48;" xml:space="preserve">
<style type="text/css">
	.st0{fill:#009E66;}
</style>
<path class="st0" d="M31.1,29.9l1.6-1.6l-4.4-4.4c0.4-0.6,0.7-1.2,0.9-1.8c0.2-0.6,0.4-1.3,0.4-1.9c0-1.9-0.6-3.5-2-4.8
	c-1.3-1.3-2.9-1.9-4.8-1.9c-1.9,0-3.5,0.6-4.8,1.9c-1.3,1.3-2,2.9-2,4.8c0,1.9,0.6,3.5,2,4.8c1.3,1.3,2.9,1.9,4.8,1.9
	c0.7,0,1.4-0.1,2.1-0.4c0.6-0.2,1.3-0.6,1.9-0.9L31.1,29.9z M22.9,24.5c-1.2,0-2.2-0.4-3-1.2c-0.8-0.8-1.2-1.8-1.2-3s0.4-2.2,1.2-3
	c0.8-0.8,1.8-1.2,3-1.2c1.2,0,2.2,0.4,3,1.2c0.8,0.8,1.2,1.8,1.2,3s-0.4,2.2-1.2,3C25.1,24.1,24.1,24.5,22.9,24.5z M3.5,42
	c-0.4,0-0.8-0.1-1.1-0.4S2,40.9,2,40.5s0.1-0.8,0.4-1.1S3.1,39,3.5,39h41c0.4,0,0.8,0.1,1.1,0.4s0.4,0.6,0.4,1.1s-0.1,0.8-0.4,1.1
	S44.9,42,44.5,42H3.5z M7,36c-0.8,0-1.5-0.3-2.1-0.9C4.3,34.5,4,33.8,4,33V9c0-0.8,0.3-1.5,0.9-2.1S6.2,6,7,6h34
	c0.8,0,1.5,0.3,2.1,0.9C43.7,7.5,44,8.2,44,9v24c0,0.8-0.3,1.5-0.9,2.1C42.5,35.7,41.8,36,41,36H7z M7,33h34V9H7V33z M7,33V9V33z"/>
</svg>
